<?xml version="1.0" standalone="no"?>
<!DOCTYPE svg PUBLIC "-//W3C//DTD SVG 20010904//EN"
 "http://www.w3.org/TR/2001/REC-SVG-20010904/DTD/svg10.dtd">
<svg version="1.0" xmlns="http://www.w3.org/2000/svg"
 width="256.000000pt" height="256.000000pt" viewBox="0 0 256.000000 256.000000"
 preserveAspectRatio="xMidYMid meet">
<metadata>
Created by potrace 1.11, written by Peter Selinger 2001-2013
</metadata>
<g transform="translate(0.000000,256.000000) scale(0.100000,-0.100000)"
fill="#000000" stroke="none">
<path d="M475 2384 c-105 -110 -285 -297 -346 -359 l-59 -61 142 -58 c79 -33
161 -67 183 -76 22 -10 141 -59 265 -110 124 -50 245 -101 269 -111 24 -11 45
-18 48 -15 3 2 -39 89 -93 193 -258 499 -337 648 -342 654 -4 3 -34 -23 -67
-57z"/>
<path d="M1679 2262 c-8 -2 -21 -6 -29 -9 -8 -4 -17 -7 -20 -8 -48 -17 -54
-21 -236 -202 -146 -147 -193 -199 -198 -226 -2 -7 -8 -23 -13 -37 -13 -32
-15 -170 -2 -170 5 0 9 -9 9 -20 0 -30 43 -100 61 -100 5 0 38 30 74 66 47 48
63 70 55 78 -9 12 -14 51 -11 89 0 10 74 92 164 181 173 173 193 186 254 161
37 -16 282 -262 298 -300 14 -32 11 -69 -9 -100 -7 -11 -80 -86 -161 -167
-154 -154 -180 -171 -236 -150 -23 9 -32 4 -96 -59 -79 -77 -79 -78 7 -118 77
-35 175 -33 258 6 43 19 353 320 385 373 11 19 24 37 27 40 15 13 28 88 26
148 -4 87 -29 143 -100 217 -31 33 -56 63 -56 67 0 5 -4 8 -9 8 -5 0 -44 36
-87 81 -44 44 -98 94 -121 109 -59 40 -169 60 -234 42z"/>
<path d="M1524 1620 c-10 -4 -22 -6 -26 -3 -12 6 -588 -574 -588 -592 0 -8 -4
-15 -9 -15 -14 0 5 -69 26 -92 25 -28 66 -47 89 -43 10 2 25 4 31 4 7 1 140
128 296 284 318 318 331 336 280 405 -28 37 -73 61 -99 52z"/>
<path d="M768 1355 c-25 -7 -61 -23 -80 -36 -35 -24 -150 -129 -142 -129 3 0
-16 -18 -41 -40 -25 -22 -45 -40 -43 -40 2 0 -29 -34 -70 -75 -92 -94 -116
-144 -116 -245 -1 -55 4 -88 19 -120 28 -62 31 -66 195 -231 173 -174 205
-192 325 -192 67 -1 88 4 130 25 46 24 277 238 258 238 -4 1 1 6 13 13 11 7
45 39 74 72 29 33 58 63 63 66 5 3 8 9 8 13 -1 3 0 8 0 11 1 3 3 10 4 15 1 6
3 11 5 13 15 18 21 166 8 190 -5 10 -11 28 -13 39 -3 11 -11 28 -20 38 -8 9
-15 22 -15 28 0 7 -3 12 -8 12 -15 0 -144 -138 -138 -148 11 -17 15 -82 5 -82
-6 0 -7 -4 -4 -10 7 -12 -279 -305 -318 -326 -15 -8 -46 -14 -68 -12 -37 2
-50 12 -176 139 -75 75 -142 147 -148 160 -15 26 -10 74 11 106 18 29 286 294
313 311 26 15 75 16 100 1 15 -10 27 -3 84 54 37 36 67 70 67 74 0 12 -60 48
-105 63 -53 18 -120 19 -177 5z"/>
<path d="M1641 792 c45 -86 114 -220 154 -297 181 -351 210 -405 217 -405 4 0
49 44 101 97 356 368 365 378 351 386 -14 8 -493 208 -761 317 l-143 59 81
-157z"/>
</g>
</svg>
